<svg id="a0391cbf-45b6-4ca7-87d0-82909094a870" data-name="Capa 1" xmlns="http://www.w3.org/2000/svg" viewBox="0 0 1026.71 1027.91"><path d="M953.23,1060.09c-8.67-.92-17.33-2.1-26-2.71Q804,1048.63,698.29,984.94,572.37,908.89,505.62,777.49A499.15,499.15,0,0,1,454,603.3c-3.68-34.41-4.88-68.88-1.3-103.14,17.08-163.53,94.42-291.23,230.54-383.27C739,79.21,800.68,55.71,866.29,42.1a474.3,474.3,0,0,1,159.88-5.67q179.14,23.93,306.12,153.14c36.33,36.94,65.09,79.1,90.25,124.22,20.78,37.24,31.82,77.6,42.27,118.31,13.56,52.82,14.55,106.81,10.12,160.48-7.75,93.78-40,179.24-96,255.13-71.61,97.13-166,161.63-282.32,193.65-36.73,10.11-74.37,15.08-112.37,17.39-3.25.2-6.46.88-9.69,1.34Zm10.51-20.2c273.43.26,494.46-220.6,494.61-494.95.14-270.9-216.9-491.08-494.63-493.59C688.42,48.86,467.37,283.73,470,546.4,472.68,818.65,691.5,1039.82,963.74,1039.89Z" transform="translate(-450.57 -32.18)" style="fill:#fff"/><path d="M965.94,731.21q174.7,0,349.42,0c5.19,0,10.38-.31,15.57-.51,9-.34,12.07,4,7.26,11.47-14.3,22.25-27.94,45.06-43.92,66.06-46.87,61.59-107.81,104.63-179.85,132.22-36.62,14-74.28,23.77-113.57,26.27-143.73,9.11-264.38-38.5-358.75-148.14-18.21-21.16-32-46.11-47.74-69.39a28.48,28.48,0,0,1-4-8.91c-1.27-5.13.61-8.62,6.46-8.83,1.64-.06,3.28,0,4.92,0H965.94Zm94,16.17v.13c-26.26,0-52.52.25-78.76-.17-7-.1-10.42,2.93-11.33,8.93a192.78,192.78,0,0,0-2.53,26c-.59,43.2-.85,86.4-1.16,129.6a149.33,149.33,0,0,0,.49,16.39c1,10.07,8.93,20.78,15.78,20.61,15-.36,30.2-.16,44.94-2.57,17.13-2.81,33.7-8.87,50.77-12.23,22.22-4.38,42-14.71,62.31-23.74,2.77-1.24,5.49-6.06,5.58-9.3,1.08-37.95,1.71-75.91,2.3-113.87.15-10.08-.07-20.18-.43-30.26-.26-7.36-4.09-9.86-11.71-9.72C1110.78,747.69,1085.36,747.38,1059.94,747.38Zm-214.26.14v-1.11H808c-12.18,0-12.18,0-12.36,12.33-.56,36.89-1.28,73.77-1.56,110.66-.07,9.5.1,19.28,2.29,28.42,1.84,7.71,1.91,17.64,11.22,21.39,11.61,4.68,23.46,8.81,35.38,12.66,30.49,9.87,61.48,17,93.82,17.26,6.79.06,10.62-1.92,13.55-7.74,6.26-12.45,6.35-25.61,6.13-39.12-.49-29.49-.48-59-.19-88.48.18-18.56,1.45-37.1,1.8-55.65.14-7.21-2.89-11-11.52-10.83C912.9,747.85,879.29,747.52,845.68,747.52Zm-61,162.11c0-6.56,0-10.49,0-14.43-.31-26.46-1.2-52.93-.75-79.38.32-18.81,2.72-37.59,3.67-56.41.63-12.38-.38-13-12.47-13q-69.66.45-139.32,1c-3,0-6.2,0-8.88,1-5.72,2.24-9.36,6.06-5.7,12.68,3.56,6.42,6.79,13.11,11.06,19,31.54,43.78,71.36,78.85,116,108.65C759.19,896.1,771.13,901.94,784.67,909.63Zm374.06-8.86c26.15-14,50.21-29.82,71.6-49.64,27.76-25.72,54.26-52.48,73.41-85.53,7.29-12.57,3.88-18.35-10.65-18.33-10.12,0-20.23.78-30.34.7q-46.35-.4-92.69-1.26c-5.21-.1-8.88,1.74-9.51,6.82-1.44,11.59-2.64,23.22-3.35,34.87-1.72,28.59-3,57.21-4.67,85.81C1152,883.66,1153.3,892.51,1158.73,900.77Z" transform="translate(-450.57 -32.18)" style="fill:#fff"/><path d="M1388,544.1c-.12,33.06-7.17,64-24.52,92.35-9.17,14.95-21,26.49-39.24,29.49-12.52,2.06-24-.09-34-7.92-22.83-17.8-35.17-41.69-40.65-69.77-7.54-38.68-6.23-76.8,9-113.34a111.7,111.7,0,0,1,22.4-33.72c23.14-24,55.46-21.63,76.15,4.73,15,19.05,23.38,41.24,27.63,64.89C1386.61,521.75,1386.91,533,1388,544.1Zm-124.28-.39c0,4.2-.17,10.48,0,16.76.89,29.27,9.23,55.93,28.81,78.21a33.76,33.76,0,0,0,14,9.23c15.12,5.11,30.32-1.69,41.23-18.86,16.12-25.38,21.89-54.19,22-83.5.1-17.46-4.15-35.19-8.24-52.37-4.43-18.64-14-34.89-29.28-47.15-9.73-7.81-18-9.34-27.7-2.28-8.63,6.28-17.34,13.76-22.93,22.65C1267.31,489.16,1262.3,514.8,1263.69,543.71Z" transform="translate(-450.57 -32.18)" style="fill:#fff"/><path d="M684.19,546.81c-1.88,30.74-6.17,63.65-26.67,91.8A95.39,95.39,0,0,1,638.9,658c-18.2,13.95-35.83,13.33-53.9-.88-20.25-15.91-31.54-37.5-37.06-62-9.63-42.78-8.67-85,9.66-125.76,6.69-14.88,15.38-28.38,29.53-37.36,16.27-10.33,32.72-10.76,49.31-.42,14.9,9.29,25.91,22.09,31.89,38.37C677.11,493.76,683.31,518.34,684.19,546.81Zm-16.76-7.34c-2.25-12-3.85-29.63-9.17-46.07a130.91,130.91,0,0,0-20.44-38.65c-14.05-18.31-34.44-18.34-49.85-1.16-6.44,7.18-11.6,15.91-15.66,24.71-14.06,30.52-15,62.91-11,95.53,2.44,19.9,8.72,38.84,19.86,55.78,16.2,24.63,43.27,25.59,61.1,2.22a81.65,81.65,0,0,0,6.9-11.1C661.82,597,665.17,571.12,667.43,539.47Z" transform="translate(-450.57 -32.18)" style="fill:#fff"/></svg>